<?xml version="1.0" encoding="UTF-8" standalone="no"?>
<!-- Created with Inkscape (http://www.inkscape.org/) -->

<svg
   xmlns:dc="http://purl.org/dc/elements/1.1/"
   xmlns:cc="http://creativecommons.org/ns#"
   xmlns:rdf="http://www.w3.org/1999/02/22-rdf-syntax-ns#"
   xmlns:svg="http://www.w3.org/2000/svg"
   xmlns="http://www.w3.org/2000/svg"
   xmlns:sodipodi="http://sodipodi.sourceforge.net/DTD/sodipodi-0.dtd"
   xmlns:inkscape="http://www.inkscape.org/namespaces/inkscape"
   width="744.09448819"
   height="1052.3622047"
   id="svg2"
   version="1.1"
   inkscape:version="0.48.2 r9819"
   sodipodi:docname="icons.svg">
  <defs
     id="defs4">
    <marker
       inkscape:stockid="Arrow1Lend"
       orient="auto"
       refY="0.0"
       refX="0.0"
       id="Arrow1Lend"
       style="overflow:visible;">
      <path
         id="path3907"
         d="M 0.0,0.0 L 5.0,-5.0 L -12.5,0.0 L 5.0,5.0 L 0.0,0.0 z "
         style="fill-rule:evenodd;stroke:#000000;stroke-width:1.0pt;marker-start:none;"
         transform="scale(0.8) rotate(180) translate(12.5,0)" />
    </marker>
    <marker
       inkscape:stockid="Arrow1Lstart"
       orient="auto"
       refY="0.0"
       refX="0.0"
       id="Arrow1Lstart"
       style="overflow:visible">
      <path
         id="path3904"
         d="M 0.0,0.0 L 5.0,-5.0 L -12.5,0.0 L 5.0,5.0 L 0.0,0.0 z "
         style="fill-rule:evenodd;stroke:#000000;stroke-width:1.0pt;marker-start:none"
         transform="scale(0.8) translate(12.5,0)" />
    </marker>
  </defs>
  <sodipodi:namedview
     id="base"
     pagecolor="#ffffff"
     bordercolor="#666666"
     borderopacity="1.0"
     inkscape:pageopacity="0.0"
     inkscape:pageshadow="2"
     inkscape:zoom="0.35"
     inkscape:cx="1558.8294"
     inkscape:cy="1581.8154"
     inkscape:document-units="px"
     inkscape:current-layer="layer1"
     showgrid="false"
     inkscape:window-width="1920"
     inkscape:window-height="1134"
     inkscape:window-x="1019"
     inkscape:window-y="-5"
     inkscape:window-maximized="1" />
  <metadata
     id="metadata7">
    <rdf:RDF>
      <cc:Work
         rdf:about="">
        <dc:format>image/svg+xml</dc:format>
        <dc:type
           rdf:resource="http://purl.org/dc/dcmitype/StillImage" />
        <dc:title></dc:title>
      </cc:Work>
    </rdf:RDF>
  </metadata>
  <g
     inkscape:label="Layer 1"
     inkscape:groupmode="layer"
     id="layer1">
    <path
       style="fill:#4d4d4d;stroke:#000000;stroke-width:1px;stroke-linecap:butt;stroke-linejoin:miter;stroke-opacity:1"
       d="M 1931.4375 -1224.7812 L 1148.5625 -941.9375 L 1331.4375 -941.59375 L 1331.4375 -10.5 L 2542.8438 -10.5 L 2542.8438 -939.4375 L 2742.8438 -939.0625 L 1931.4375 -1224.7812 z "
       id="path4191"
       inkscape:export-filename="G:\unity-dev\HouseCraft\Gfx\icon2.png"
       inkscape:export-xdpi="56.429924"
       inkscape:export-ydpi="56.429924" />
    <rect
       style="fill:#0055d4;fill-opacity:1;stroke:#ffffff;stroke-width:2;stroke-miterlimit:4;stroke-dasharray:none;stroke-dashoffset:0"
       id="rect3112"
       width="1935.7142"
       height="834.28571"
       x="857.14288"
       y="165.21933"
       ry="7.8714163e-007" />
    <path
       style="fill:none;stroke:#ffffff;stroke-width:1px;stroke-linecap:butt;stroke-linejoin:miter;stroke-opacity:1"
       d="m 1473.7768,584.5779 c -2.7508,0.43724 147.1681,0 147.1681,0 l 87.6819,-55.74845 -146.8242,-0.21862 z"
       id="path3005"
       inkscape:connector-curvature="0" />
    <path
       style="fill:none;stroke:#ffffff;stroke-width:1px;stroke-linecap:butt;stroke-linejoin:miter;stroke-opacity:1"
       d="m 1374.9384,652.6906 c -2.7508,0.43724 147.1681,0 147.1681,0 l 87.6819,-55.74845 -146.8242,-0.21862 z"
       id="path3005-1"
       inkscape:connector-curvature="0" />
    <path
       style="fill:none;stroke:#ffffff;stroke-width:1px;stroke-linecap:butt;stroke-linejoin:miter;stroke-opacity:1"
       d="m 1656.8006,584.96656 c -2.7508,0.43724 147.1681,0 147.1681,0 l 87.6819,-55.74845 -146.8242,-0.21862 z"
       id="path3005-7"
       inkscape:connector-curvature="0" />
    <path
       style="fill:none;stroke:#ffffff;stroke-width:1px;stroke-linecap:butt;stroke-linejoin:miter;stroke-opacity:1"
       d="m 1557.9623,653.07926 c -2.7508,0.43724 147.1681,0 147.1681,0 l 87.6819,-55.74845 -146.8242,-0.21862 z"
       id="path3005-1-4"
       inkscape:connector-curvature="0" />
    <path
       style="fill:none;stroke:#ffffff;stroke-width:1px;stroke-linecap:butt;stroke-linejoin:miter;stroke-opacity:1"
       d="m 1268.8895,721.19196 c -2.7509,0.43724 147.168,0 147.168,0 l 87.682,-55.74845 -146.8243,-0.21862 z"
       id="path3005-0"
       inkscape:connector-curvature="0" />
    <path
       style="fill:none;stroke:#ffffff;stroke-width:1px;stroke-linecap:butt;stroke-linejoin:miter;stroke-opacity:1"
       d="m 1451.9133,721.58062 c -2.7508,0.43724 147.1681,0 147.1681,0 l 87.6819,-55.74845 -146.8242,-0.21862 z"
       id="path3005-7-4"
       inkscape:connector-curvature="0" />
    <path
       style="fill:none;stroke:#ffffff;stroke-width:1px;stroke-linecap:butt;stroke-linejoin:miter;stroke-opacity:1"
       d="m 1844.5669,585.06372 c -2.7508,0.43725 147.1681,0 147.1681,0 l 87.6819,-55.74845 -146.8242,-0.21861 z"
       id="path3005-8"
       inkscape:connector-curvature="0" />
    <g
       id="g3888"
       style="fill:none;stroke:#999999;stroke-width:8;stroke-miterlimit:4;stroke-dasharray:none">
      <path
         inkscape:connector-curvature="0"
         id="path3882"
         d="m 1559.2857,648.79075 93.5714,-60 137.8572,4.28572"
         style="fill:none;stroke:#999999;stroke-width:8;stroke-linecap:butt;stroke-linejoin:miter;stroke-opacity:1;stroke-miterlimit:4;stroke-dasharray:none" />
      <path
         inkscape:connector-curvature="0"
         id="path3884"
         d="m 1654.2857,590.21932 -2.8571,-65 137.1428,-4.28571"
         style="fill:none;stroke:#999999;stroke-width:8;stroke-linecap:butt;stroke-linejoin:miter;stroke-opacity:1;stroke-miterlimit:4;stroke-dasharray:none" />
      <path
         inkscape:connector-curvature="0"
         id="path3886"
         d="m 1651.4286,525.21932 -95,52.14286"
         style="fill:none;stroke:#999999;stroke-width:8;stroke-linecap:butt;stroke-linejoin:miter;stroke-opacity:1;stroke-miterlimit:4;stroke-dasharray:none" />
    </g>
    <path
       style="fill:none;stroke:#ffffff;stroke-width:1px;stroke-linecap:butt;stroke-linejoin:miter;stroke-opacity:1"
       d="m 1745.7286,653.17643 c -2.7508,0.43724 147.1681,0 147.1681,0 l 87.6818,-55.74845 -146.8242,-0.21862 z"
       id="path3005-1-2"
       inkscape:connector-curvature="0" />
    <path
       style="fill:none;stroke:#ffffff;stroke-width:1px;stroke-linecap:butt;stroke-linejoin:miter;stroke-opacity:1"
       d="m 1639.6796,721.67779 c -2.7508,0.43725 147.1681,0 147.1681,0 l 87.6819,-55.74845 -146.8242,-0.21862 z"
       id="path3005-0-1"
       inkscape:connector-curvature="0" />
    <path
       style="fill:none;stroke:#ffffff;stroke-width:10;stroke-linecap:butt;stroke-linejoin:miter;stroke-miterlimit:4;stroke-opacity:1;stroke-dasharray:none"
       d="m 1557.6763,652.34068 -3.4385,-80.00012 141.6665,-1.15385 7.5647,81.15397 z"
       id="path3106"
       inkscape:connector-curvature="0" />
    <path
       style="fill:#ffffff;stroke:#ffffff;stroke-width:8;stroke-miterlimit:4;stroke-dasharray:none;stroke-dashoffset:0"
       d="M 1302.9375 317.375 C 1269.262 317.375 1242.1562 344.48076 1242.1562 378.15625 L 1242.1562 825.875 C 1242.1562 859.55049 1269.262 886.65625 1302.9375 886.65625 L 2014.2188 886.65625 C 2047.8942 886.65625 2075 859.55049 2075 825.875 L 2075 378.15625 C 2075 344.48076 2047.8942 317.375 2014.2188 317.375 L 1302.9375 317.375 z M 1518.6562 388.375 L 1786.2188 388.375 C 1819.8942 388.375 1847 415.48076 1847 449.15625 L 1847 713.875 C 1847 747.55049 1819.8942 774.65625 1786.2188 774.65625 L 1518.6562 774.65625 C 1484.9808 774.65625 1457.8438 747.55049 1457.8438 713.875 L 1457.8438 449.15625 C 1457.8438 415.48076 1484.9808 388.375 1518.6562 388.375 z "
       id="rect4543" />
    <path
       style="fill:none;stroke:#ffffff;stroke-width:10;stroke-linecap:butt;stroke-linejoin:miter;stroke-miterlimit:4;stroke-opacity:1;stroke-dasharray:none"
       d="m 1699.3428,569.12957 90.7766,-52.1759 0,81.2199 -86.6504,54.55173 z"
       id="path3108"
       inkscape:connector-curvature="0"
       sodipodi:nodetypes="ccccc" />
    <path
       style="fill:none;stroke:#999999;stroke-width:8;stroke-linecap:butt;stroke-linejoin:miter;stroke-miterlimit:4;stroke-opacity:1;stroke-dasharray:none"
       d="m 1649.2857,524.1479 68.9286,-48.92857"
       id="path3893"
       inkscape:connector-curvature="0"
       sodipodi:nodetypes="cc" />
    <path
       style="fill:none;stroke:#ffffff;stroke-width:10;stroke-linecap:butt;stroke-linejoin:miter;stroke-miterlimit:4;stroke-opacity:1;stroke-dasharray:none"
       d="m 1530.1683,584.15377 92.6536,-53.54294 102.3877,53.62865 90.0358,-55.40009 -96.4643,-53.68578 -95.9362,55.17149 z"
       id="path3110"
       inkscape:connector-curvature="0"
       sodipodi:nodetypes="ccccccc" />
    <path
       style="fill:none;stroke:#ffffff;stroke-width:1px;stroke-linecap:butt;stroke-linejoin:miter;stroke-opacity:1"
       d="m 1554.2857,573.79075 -47.1428,0"
       id="path3895"
       inkscape:connector-curvature="0" />
    <path
       style="fill:none;stroke:#ffffff;stroke-width:1px;stroke-linecap:butt;stroke-linejoin:miter;stroke-opacity:1"
       d="m 1558.5714,653.43361 -51.4285,0"
       id="path3897"
       inkscape:connector-curvature="0" />
    <g
       id="g4531"
       style="fill:#e6e6e6;stroke:none"
       transform="matrix(1,0,0,0.93856837,0,37.041623)">
      <path
         style="font-size:medium;font-style:normal;font-variant:normal;font-weight:normal;font-stretch:normal;text-indent:0;text-align:start;text-decoration:none;line-height:normal;letter-spacing:normal;word-spacing:normal;text-transform:none;direction:ltr;block-progression:tb;writing-mode:lr-tb;text-anchor:start;baseline-shift:baseline;color:#000000;fill:#e6e6e6;fill-opacity:1;stroke:none;stroke-width:1px;marker:none;visibility:visible;display:inline;overflow:visible;enable-background:accumulate;font-family:Sans;-inkscape-font-specification:Sans"
         d="m 1513.7812,574.875 0,78.5625 1,0 0,-78.5625 -1,0 z"
         id="path3899"
         inkscape:connector-curvature="0" />
      <path
         style="fill:#e6e6e6;fill-rule:evenodd;stroke:none;stroke-width:0.8pt;marker-start:none"
         d="m 1514.2411,582.45147 4,4 -4,-14 -4,14 4,-4 z"
         id="path4537"
         inkscape:connector-curvature="0" />
      <path
         style="fill:#e6e6e6;fill-rule:evenodd;stroke:none;stroke-width:0.8pt;marker-start:none"
         d="m 1514.2857,646.0229 -4,-4 4,14 4,-14 -4,4 z"
         id="path4539"
         inkscape:connector-curvature="0" />
    </g>
    <path
       style="fill:#ffffff;stroke:none;stroke-width:1px;stroke-linecap:butt;stroke-linejoin:miter;stroke-opacity:1"
       d="m 1476.4286,731.6479 7.1428,-299.28572 18.5715,300 255,15 -259.2858,3.57143 z"
       id="path4546"
       inkscape:connector-curvature="0" />
    <rect
       style="fill:#e9c6af;stroke:#000000;stroke-width:1"
       id="rect3020"
       width="584.67737"
       height="450.31839"
       x="1384.2858"
       y="-495.09906"
       ry="1.2192877e-006"
       inkscape:export-filename="G:\unity-dev\HouseCraft\Gfx\icon2.png"
       inkscape:export-xdpi="56.429924"
       inkscape:export-ydpi="56.429924" />
    <rect
       style="fill:#a37b6f;fill-opacity:1;stroke:#000000;stroke-width:1;stroke-miterlimit:4;stroke-dasharray:none;stroke-dashoffset:0"
       id="rect3806-7"
       width="222.23357"
       height="175.76654"
       x="1549.574"
       y="-220.43002"
       ry="7.8264367e-007"
       inkscape:export-filename="G:\unity-dev\HouseCraft\Gfx\icon2.png"
       inkscape:export-xdpi="56.429924"
       inkscape:export-ydpi="56.429924" />
    <rect
       style="fill:#916f6f;stroke:#000000;stroke-width:1;stroke-miterlimit:4;stroke-dasharray:none;stroke-dashoffset:0"
       id="rect3806"
       width="173.74625"
       height="175.76654"
       x="1383.9089"
       y="-220.43002"
       ry="7.8264367e-007"
       inkscape:export-filename="G:\unity-dev\HouseCraft\Gfx\icon2.png"
       inkscape:export-xdpi="56.429924"
       inkscape:export-ydpi="56.429924" />
    <path
       sodipodi:type="arc"
       style="fill:#ffcc00;stroke:#000000;stroke-width:1;stroke-miterlimit:4;stroke-dasharray:none;stroke-dashoffset:0"
       id="path3810"
       sodipodi:cx="1545.0283"
       sodipodi:cy="-422.46054"
       sodipodi:rx="27.779196"
       sodipodi:ry="14.142136"
       d="m 1572.8075,-422.46054 a 27.779196,14.142136 0 1 1 -55.5584,0 27.779196,14.142136 0 1 1 55.5584,0 z"
       transform="translate(70.710678,-12.121831)"
       inkscape:export-filename="G:\unity-dev\HouseCraft\Gfx\icon2.png"
       inkscape:export-xdpi="56.429924"
       inkscape:export-ydpi="56.429924" />
    <path
       transform="translate(179.30207,-14.142127)"
       sodipodi:type="arc"
       style="fill:#ffcc00;stroke:#000000;stroke-width:1;stroke-miterlimit:4;stroke-dasharray:none;stroke-dashoffset:0"
       id="path3810-1"
       sodipodi:cx="1545.0283"
       sodipodi:cy="-422.46054"
       sodipodi:rx="27.779196"
       sodipodi:ry="14.142136"
       d="m 1572.8075,-422.46054 a 27.779196,14.142136 0 1 1 -55.5584,0 27.779196,14.142136 0 1 1 55.5584,0 z"
       inkscape:export-filename="G:\unity-dev\HouseCraft\Gfx\icon2.png"
       inkscape:export-xdpi="56.429924"
       inkscape:export-ydpi="56.429924" />
    <path
       style="fill:none;stroke:#000000;stroke-width:1px;stroke-linecap:butt;stroke-linejoin:miter;stroke-opacity:1"
       d="m 1639.4776,-437.61282 c 0,0 34.3452,9.09137 36.3655,-57.57869"
       id="path3830"
       inkscape:connector-curvature="0"
       inkscape:export-filename="G:\unity-dev\HouseCraft\Gfx\icon2.png"
       inkscape:export-xdpi="56.429924"
       inkscape:export-ydpi="56.429924" />
    <path
       style="fill:none;stroke:#000000;stroke-width:1px;stroke-linecap:butt;stroke-linejoin:miter;stroke-opacity:1"
       d="m 1696.0461,-437.61282 c 0,0 -23.2335,4.04061 -20.203,-58.58885"
       id="path3832"
       inkscape:connector-curvature="0"
       inkscape:export-filename="G:\unity-dev\HouseCraft\Gfx\icon2.png"
       inkscape:export-xdpi="56.429924"
       inkscape:export-ydpi="56.429924" />
    <path
       style="font-size:medium;font-style:normal;font-variant:normal;font-weight:normal;font-stretch:normal;text-indent:0;text-align:start;text-decoration:none;line-height:normal;letter-spacing:normal;word-spacing:normal;text-transform:none;direction:ltr;block-progression:tb;writing-mode:lr-tb;text-anchor:start;baseline-shift:baseline;color:#000000;fill:#b3b3b3;fill-opacity:1;stroke:#000000;stroke-width:1;stroke-miterlimit:4;stroke-dasharray:none;marker:none;visibility:visible;display:inline;overflow:visible;enable-background:accumulate;font-family:Sans;-inkscape-font-specification:Sans"
       d="m 1481.6953,-293.8336 c -3.1336,-0.0686 -6.4287,0.245 -10.0626,0.5 -7.2676,0.51001 -16.1625,1.23541 -27.8124,0.75 -14.5245,-0.60518 -24.4407,6.80163 -29.2813,14.0625 -4.8406,7.26087 -5.75,14.6875 -5.75,14.6875 l -0.031,0.3125 0,0.3125 -2.0312,42.40625 14.9688,0.71875 2,-41.96875 c 0.037,-0.23853 0.6582,-4.14369 3.3124,-8.125 2.7356,-4.10335 6.4684,-7.81122 16.1876,-7.40625 12.5937,0.52474 22.3729,-0.28111 29.5,-0.78125 7.127,-0.50014 11.4314,-0.19009 12.3124,0.1875 0.1093,0.0468 0.019,-0.0256 0.094,0 -0.01,0.10178 -1.0102,7.32107 -1.0102,7.32107 l 14.7914,-1.16482 c 0,0 1.4625,-3.16938 1.2188,-7.3125 -0.2437,-4.14312 -3.3541,-10.12498 -9.1875,-12.625 -3.095,-1.32643 -6.0852,-1.80645 -9.2187,-1.875 z"
       id="path3834"
       inkscape:connector-curvature="0"
       sodipodi:nodetypes="csssccccccsssccccsscc"
       inkscape:export-filename="G:\unity-dev\HouseCraft\Gfx\icon2.png"
       inkscape:export-xdpi="56.429924"
       inkscape:export-ydpi="56.429924" />
    <rect
       style="fill:none;stroke:#000000;stroke-width:1;stroke-miterlimit:4;stroke-dasharray:none;stroke-dashoffset:0"
       id="rect3860"
       width="185.86807"
       height="146.47212"
       x="1571.7974"
       y="-204.26758"
       ry="7.8264367e-007"
       inkscape:export-filename="G:\unity-dev\HouseCraft\Gfx\icon2.png"
       inkscape:export-xdpi="56.429924"
       inkscape:export-ydpi="56.429924" />
    <path
       sodipodi:type="arc"
       style="fill:none;stroke:#000000;stroke-width:1;stroke-miterlimit:4;stroke-dasharray:none;stroke-dashoffset:0"
       id="path3880"
       sodipodi:cx="1682.4091"
       sodipodi:cy="-138.10258"
       sodipodi:rx="6.5659914"
       sodipodi:ry="7.5761442"
       d="m 1688.975,-138.10258 a 6.5659914,7.5761442 0 1 1 -13.1319,0 6.5659914,7.5761442 0 1 1 13.1319,0 z"
       transform="translate(-20.203051,-35.355339)"
       inkscape:export-filename="G:\unity-dev\HouseCraft\Gfx\icon2.png"
       inkscape:export-xdpi="56.429924"
       inkscape:export-ydpi="56.429924" />
    <path
       sodipodi:type="arc"
       style="fill:none;stroke:#000000;stroke-width:1;stroke-miterlimit:4;stroke-dasharray:none;stroke-dashoffset:0"
       id="path3880-0"
       sodipodi:cx="1682.4091"
       sodipodi:cy="-138.10258"
       sodipodi:rx="6.5659914"
       sodipodi:ry="7.5761442"
       d="m 1688.975,-138.10258 a 6.5659914,7.5761442 0 1 1 -13.1319,0 6.5659914,7.5761442 0 1 1 13.1319,0 z"
       transform="translate(-20.708122,34.850257)"
       inkscape:export-filename="G:\unity-dev\HouseCraft\Gfx\icon2.png"
       inkscape:export-xdpi="56.429924"
       inkscape:export-ydpi="56.429924" />
    <path
       style="fill:none;stroke:#000000;stroke-width:1px;stroke-linecap:butt;stroke-linejoin:miter;stroke-opacity:1"
       d="m 1570.7872,-142.64828 185.8681,1.01016"
       id="path3900"
       inkscape:connector-curvature="0"
       inkscape:export-filename="G:\unity-dev\HouseCraft\Gfx\icon2.png"
       inkscape:export-xdpi="56.429924"
       inkscape:export-ydpi="56.429924" />
    <rect
       style="fill:#f9f9f9;stroke:#000000;stroke-width:1;stroke-miterlimit:4;stroke-dasharray:none;stroke-dashoffset:0"
       id="rect3902"
       width="192.85715"
       height="402.85715"
       x="1771.4286"
       y="-449.06638"
       ry="7.8264367e-007"
       inkscape:export-filename="G:\unity-dev\HouseCraft\Gfx\icon2.png"
       inkscape:export-xdpi="56.429924"
       inkscape:export-ydpi="56.429924" />
    <path
       style="fill:none;stroke:#000000;stroke-width:1px;stroke-linecap:butt;stroke-linejoin:miter;stroke-opacity:1"
       d="m 1771.4285,-321.92353 190,0"
       id="path3905"
       inkscape:connector-curvature="0"
       inkscape:export-filename="G:\unity-dev\HouseCraft\Gfx\icon2.png"
       inkscape:export-xdpi="56.429924"
       inkscape:export-ydpi="56.429924" />
    <g
       id="g4170"
       transform="translate(-42.857143,-2.8571429)"
       inkscape:export-filename="G:\unity-dev\HouseCraft\Gfx\icon2.png"
       inkscape:export-xdpi="56.429924"
       inkscape:export-ydpi="56.429924">
      <rect
         ry="7.8264367e-007"
         y="-494.78067"
         x="2044.2858"
         height="455.71429"
         width="498.57144"
         id="rect3907"
         style="fill:#80b3ff;fill-opacity:1;stroke:#000000;stroke-width:1;stroke-miterlimit:4;stroke-dasharray:none;stroke-dashoffset:0" />
      <rect
         ry="7.8264367e-007"
         y="-109.0664"
         x="2127.1431"
         height="68.571426"
         width="34.285713"
         id="rect3909"
         style="fill:#483e37;fill-opacity:1;stroke:#000000;stroke-width:1;stroke-miterlimit:4;stroke-dasharray:none;stroke-dashoffset:0" />
      <rect
         ry="7.8264367e-007"
         y="-106.20924"
         x="2471.4287"
         height="68.571426"
         width="34.285713"
         id="rect3909-9"
         style="fill:#483e37;fill-opacity:1;stroke:#000000;stroke-width:1;stroke-miterlimit:4;stroke-dasharray:none;stroke-dashoffset:0" />
      <rect
         ry="7.8264367e-007"
         y="-130.49496"
         x="2098.5718"
         height="28.571428"
         width="434.28571"
         id="rect3929"
         style="fill:#483e37;fill-opacity:1;stroke:#000000;stroke-width:1;stroke-miterlimit:4;stroke-dasharray:none;stroke-dashoffset:0" />
      <path
         inkscape:connector-curvature="0"
         id="path3933"
         d="m 2531.4286,-103.3521 0,-102.85715 11.4285,-1.42857 -2.8571,105.71429 z"
         style="fill:#483e37;stroke:#000000;stroke-width:1px;stroke-linecap:butt;stroke-linejoin:miter;stroke-opacity:1" />
      <path
         inkscape:connector-curvature="0"
         id="path3935"
         d="m 2512.6518,-198.9044 c -4.6943,0.1237 -9.7795,1.24083 -14.875,3.23831 -3.0137,-1.39103 -6.6664,-2.21837 -10.625,-2.21837 -10.2567,0 -18.5937,5.47972 -18.5937,12.2393 0,0.10995 0.027,0.22222 0.031,0.33148 -2.2697,-0.56694 -4.6696,-0.89245 -7.1562,-0.89245 -14.2018,0 -25.7188,9.90111 -25.7188,22.13272 0,12.23162 11.517,22.15823 25.7188,22.15823 3.9841,0 7.7588,-0.79977 11.125,-2.19287 11.1129,7.09158 31.5907,2.14679 46.4374,-11.42335 15.2374,-13.92708 18.7637,-31.64233 7.875,-39.57372 -3.7428,-2.72642 -8.7031,-3.94463 -14.2187,-3.79928 z"
         style="fill:#d5e5ff;fill-opacity:1;stroke:#000000;stroke-width:1;stroke-miterlimit:4;stroke-dasharray:none;stroke-dashoffset:0" />
      <rect
         ry="13.571428"
         y="-159.06639"
         x="2104.2859"
         height="27.142857"
         width="427.14285"
         id="rect3945"
         style="fill:#d5e5ff;fill-opacity:1;stroke:#000000;stroke-width:1;stroke-miterlimit:4;stroke-dasharray:none;stroke-dashoffset:0" />
      <path
         sodipodi:nodetypes="cscccsc"
         inkscape:connector-curvature="0"
         id="path3947"
         d="m 2390.3572,-96.56639 c -10.7143,-31.42857 -74.9695,-64.27217 -237.5,-61.07142 -24.041,0.47344 -19.7656,-1.40272 -46.2194,2.77419 0,0 -12.1032,0.97426 -4.9567,-3.64693 13.2143,-5 316.4602,-4.8595 333.2459,-3.43093 1.6272,2.3486 -2.1361,2.53087 -6.7414,2.02423 -16.2579,-1.78859 -8.8411,48.52684 -37.8284,63.35086 z"
         style="fill:#afe9dd;stroke:#000000;stroke-width:1px;stroke-linecap:butt;stroke-linejoin:miter;stroke-opacity:1" />
      <path
         inkscape:connector-curvature="0"
         id="path3951"
         d="m 2433.2174,-282.64107 27.2741,60.60916 17.1726,-71.72083 z"
         style="fill:#7c6f91;stroke:#000000;stroke-width:1px;stroke-linecap:butt;stroke-linejoin:miter;stroke-opacity:1" />
      <path
         inkscape:connector-curvature="0"
         id="path3951-4"
         d="m 2183.9498,-280.53411 -27.2741,60.60916 -17.1726,-71.72083 z"
         style="fill:#7c6f91;stroke:#000000;stroke-width:1px;stroke-linecap:butt;stroke-linejoin:miter;stroke-opacity:1" />
    </g>
    <rect
       style="fill:#c6e9af;fill-opacity:1;stroke:#000000;stroke-width:0.99999982;stroke-miterlimit:4;stroke-dasharray:none;stroke-dashoffset:0"
       id="rect3971"
       width="803.90094"
       height="414.16254"
       x="1382.8988"
       y="-958.85156"
       ry="7.8264367e-007"
       inkscape:export-filename="G:\unity-dev\HouseCraft\Gfx\icon2.png"
       inkscape:export-xdpi="56.429924"
       inkscape:export-ydpi="56.429924" />
    <g
       id="g4083"
       transform="translate(-151.42857,1.4285714)"
       inkscape:export-filename="G:\unity-dev\HouseCraft\Gfx\icon2.png"
       inkscape:export-xdpi="56.429924"
       inkscape:export-ydpi="56.429924">
      <rect
         ry="6.6057129"
         y="-699.06641"
         x="1612.8572"
         height="87.114449"
         width="121.80322"
         id="rect4025"
         style="fill:#8a916f;fill-opacity:1;stroke:#000000;stroke-width:0.99999994;stroke-miterlimit:4;stroke-dasharray:none;stroke-dashoffset:0" />
      <rect
         ry="6.6057129"
         y="-697.1488"
         x="1827.7695"
         height="87.114449"
         width="121.80322"
         id="rect4025-2"
         style="fill:#8a916f;fill-opacity:1;stroke:#000000;stroke-width:0.99999994;stroke-miterlimit:4;stroke-dasharray:none;stroke-dashoffset:0" />
      <rect
         ry="6.6057129"
         y="-683.72546"
         x="1731.7324"
         height="75.608772"
         width="114.77612"
         id="rect4027"
         style="fill:#8a916f;fill-opacity:1;stroke:#000000;stroke-width:0.99999994;stroke-miterlimit:4;stroke-dasharray:none;stroke-dashoffset:0" />
      <rect
         ry="6.6057129"
         y="-695.50513"
         x="2040.3396"
         height="87.114449"
         width="121.80322"
         id="rect4025-2-5"
         style="fill:#8a916f;fill-opacity:1;stroke:#000000;stroke-width:0.99999994;stroke-miterlimit:4;stroke-dasharray:none;stroke-dashoffset:0" />
      <rect
         ry="6.6057129"
         y="-678.24658"
         x="1939.0322"
         height="75.608772"
         width="114.77612"
         id="rect4027-4"
         style="fill:#8a916f;fill-opacity:1;stroke:#000000;stroke-width:0.99999994;stroke-miterlimit:4;stroke-dasharray:none;stroke-dashoffset:0" />
    </g>
    <rect
       style="fill:#4d4d4d;fill-opacity:1;stroke:#000000;stroke-width:0.99999994;stroke-miterlimit:4;stroke-dasharray:none;stroke-dashoffset:0"
       id="rect3979"
       width="10.690618"
       height="9.7128592"
       x="1700.876"
       y="-635.25879"
       ry="0"
       inkscape:export-filename="G:\unity-dev\HouseCraft\Gfx\icon2.png"
       inkscape:export-xdpi="56.429924"
       inkscape:export-ydpi="56.429924" />
    <rect
       style="fill:#4d4d4d;fill-opacity:1;stroke:#000000;stroke-width:0.99999994;stroke-miterlimit:4;stroke-dasharray:none;stroke-dashoffset:0"
       id="rect3979-8"
       width="10.690618"
       height="9.7128592"
       x="1800.411"
       y="-635.09137"
       ry="0"
       inkscape:export-filename="G:\unity-dev\HouseCraft\Gfx\icon2.png"
       inkscape:export-xdpi="56.429924"
       inkscape:export-ydpi="56.429924" />
    <rect
       style="fill:#8a916f;fill-opacity:1;stroke:#000000;stroke-width:1;stroke-miterlimit:4;stroke-dasharray:none;stroke-dashoffset:0"
       id="rect4023"
       width="542.85712"
       height="68.571426"
       x="1463.5714"
       y="-612.63782"
       ry="8.6118917"
       inkscape:export-filename="G:\unity-dev\HouseCraft\Gfx\icon2.png"
       inkscape:export-xdpi="56.429924"
       inkscape:export-ydpi="56.429924" />
    <rect
       style="fill:#803300;fill-opacity:1;stroke:#000000;stroke-width:0.99999994;stroke-miterlimit:4;stroke-dasharray:none;stroke-dashoffset:0"
       id="rect3973"
       width="198.95799"
       height="82.168556"
       x="1649.6733"
       y="-626.43909"
       ry="6.9198222e-007"
       inkscape:export-filename="G:\unity-dev\HouseCraft\Gfx\icon2.png"
       inkscape:export-xdpi="56.429924"
       inkscape:export-ydpi="56.429924" />
    <rect
       style="fill:#999999;fill-opacity:1;stroke:#000000;stroke-width:0.99999994;stroke-miterlimit:4;stroke-dasharray:none;stroke-dashoffset:0"
       id="rect3975"
       width="153.04462"
       height="92.886192"
       x="1677.5815"
       y="-727.36353"
       ry="10.717638"
       inkscape:export-filename="G:\unity-dev\HouseCraft\Gfx\icon2.png"
       inkscape:export-xdpi="56.429924"
       inkscape:export-ydpi="56.429924" />
    <rect
       style="fill:#999999;fill-opacity:1;stroke:#000000;stroke-width:0.99999994;stroke-miterlimit:4;stroke-dasharray:none;stroke-dashoffset:0"
       id="rect3977"
       width="123.33595"
       height="62.51955"
       x="1691.0854"
       y="-713.07336"
       ry="10.717638"
       inkscape:export-filename="G:\unity-dev\HouseCraft\Gfx\icon2.png"
       inkscape:export-xdpi="56.429924"
       inkscape:export-ydpi="56.429924" />
    <path
       style="fill:none;stroke:#000000;stroke-width:0.99999994px;stroke-linecap:butt;stroke-linejoin:miter;stroke-opacity:1"
       d="m 1716.2928,-774.69978 30.609,46.4431"
       id="path3999"
       inkscape:connector-curvature="0"
       inkscape:export-filename="G:\unity-dev\HouseCraft\Gfx\icon2.png"
       inkscape:export-xdpi="56.429924"
       inkscape:export-ydpi="56.429924" />
    <path
       style="fill:none;stroke:#000000;stroke-width:0.99999994px;stroke-linecap:butt;stroke-linejoin:miter;stroke-opacity:1"
       d="m 1763.1064,-726.47041 28.8085,-79.48914"
       id="path4001"
       inkscape:connector-curvature="0"
       inkscape:export-filename="G:\unity-dev\HouseCraft\Gfx\icon2.png"
       inkscape:export-xdpi="56.429924"
       inkscape:export-ydpi="56.429924" />
    <rect
       style="fill:#8a916f;fill-opacity:1;stroke:#000000;stroke-width:1;stroke-miterlimit:4;stroke-dasharray:none;stroke-dashoffset:0"
       id="rect4003"
       width="55"
       height="134.28571"
       x="1413.5714"
       y="-679.06635"
       ry="9.2398424"
       inkscape:export-filename="G:\unity-dev\HouseCraft\Gfx\icon2.png"
       inkscape:export-xdpi="56.429924"
       inkscape:export-ydpi="56.429924" />
    <rect
       style="fill:#8a916f;fill-opacity:1;stroke:#000000;stroke-width:1;stroke-miterlimit:4;stroke-dasharray:none;stroke-dashoffset:0"
       id="rect4003-8"
       width="55"
       height="134.28571"
       x="2005.3573"
       y="-679.06641"
       ry="9.2398424"
       inkscape:export-filename="G:\unity-dev\HouseCraft\Gfx\icon2.png"
       inkscape:export-xdpi="56.429924"
       inkscape:export-ydpi="56.429924" />
    <g
       id="g4142"
       transform="translate(508.57143,-8.5714287)"
       inkscape:export-filename="G:\unity-dev\HouseCraft\Gfx\icon2.png"
       inkscape:export-xdpi="56.429924"
       inkscape:export-ydpi="56.429924">
      <rect
         ry="9.2398424"
         y="-846.56641"
         x="1486.4286"
         height="49.642857"
         width="117.5"
         id="rect4095"
         style="fill:#66ff00;fill-opacity:1;stroke:#000000;stroke-width:1;stroke-miterlimit:4;stroke-dasharray:none;stroke-dashoffset:0" />
      <rect
         ry="9.2398424"
         y="-900.13782"
         x="1486.7858"
         height="62.5"
         width="117.5"
         id="rect4097"
         style="fill:#2affd5;fill-opacity:1;stroke:#000000;stroke-width:1;stroke-miterlimit:4;stroke-dasharray:none;stroke-dashoffset:0" />
      <path
         d="m 1587.8572,-885.67352 c 0,4.63524 -4.5571,8.39285 -10.1786,8.39285 -5.6215,0 -10.1786,-3.75761 -10.1786,-8.39285 0,-4.63525 4.5571,-8.39286 10.1786,-8.39286 5.6215,0 10.1786,3.75761 10.1786,8.39286 z"
         sodipodi:ry="8.3928576"
         sodipodi:rx="10.178572"
         sodipodi:cy="-885.67352"
         sodipodi:cx="1577.6786"
         id="path4099"
         style="fill:#ffcc00;fill-opacity:1;stroke:#000000;stroke-width:1;stroke-miterlimit:4;stroke-dasharray:none;stroke-dashoffset:0"
         sodipodi:type="arc" />
      <path
         id="path4101"
         d="m 1513.9375,-864.4375 c -6.1146,0 -11.0937,4.09526 -11.0937,9.125 0,0.073 0,0.14614 0,0.21875 -0.2922,-0.0255 -0.5747,-0.0312 -0.875,-0.0312 -4.6353,0 -8.4063,3.09123 -8.4063,6.9375 0,2.3255 1.3893,4.39137 3.5,5.65625 -0.8492,1.28298 -1.3437,2.83773 -1.3437,4.53125 0,4.33938 3.2689,7.875 7.3124,7.875 2.0909,0 3.9785,-0.96042 5.3126,-2.46875 1.667,2.58852 4.2736,4.25 7.1874,4.25 2.8648,0 5.4243,-1.61095 7.0938,-4.125 0.4219,0.12531 0.8666,0.1875 1.3125,0.1875 2.9914,0 5.5032,-2.96111 6.4063,-7.0625 1.1039,2.48936 3.4162,4.21875 6.0937,4.21875 1.6698,0 3.1929,-0.67568 4.375,-1.78125 0.1782,0.15889 0.3715,0.29157 0.5625,0.4375 -3.3634,1.23899 -5.6562,3.7677 -5.6562,6.6875 0,4.14214 4.6236,7.5 10.3437,7.5 5.7201,0 10.375,-3.35786 10.375,-7.5 0,-1.63505 -0.7423,-3.14265 -1.9687,-4.375 2.8247,-0.99878 4.8124,-3.5577 4.8124,-6.53125 0,-0.19677 -0.014,-0.36986 -0.031,-0.5625 0.3531,-0.0361 0.6991,-0.0986 1.0312,-0.1875 -0.4097,1.11515 -0.625,2.3428 -0.625,3.625 0,5.22698 3.7398,9.46875 8.375,9.46875 2.7522,0 5.1883,-1.50466 6.7188,-3.8125 1.4369,2.49126 4.0417,4.15625 7.0312,4.15625 4.5367,0 8.2188,-3.82863 8.2188,-8.5625 0,-4.73387 -3.6821,-8.5625 -8.2188,-8.5625 -0.795,0 -1.5541,0.12384 -2.2812,0.34375 0.7704,-1.18753 1.2188,-2.58359 1.2188,-4.09375 0,-4.24076 -3.5357,-7.6875 -7.875,-7.6875 -0.1084,0 -0.2053,-0.004 -0.3126,0 -0.76,-1.66444 -2.8085,-2.875 -5.2187,-2.875 -2.274,0 -4.2106,1.07586 -5.0625,2.59375 0.161,-0.59001 0.25,-1.21472 0.25,-1.875 0,-3.15591 -2.0032,-5.71875 -4.4688,-5.71875 -2.4655,0 -4.4687,2.56284 -4.4687,5.71875 0,0.61485 0.1096,1.19501 0.25,1.75 -0.6715,-0.42791 -1.4263,-0.65625 -2.2187,-0.65625 -0.4898,0 -0.9572,0.0792 -1.4063,0.25 -1.0949,-2.45402 -3.7945,-4.1875 -6.9687,-4.1875 -3.3883,0 -6.2262,1.96973 -7.1563,4.6875 -1.1064,-0.25612 -2.3079,-0.40625 -3.5625,-0.40625 -2.989,0 -5.6675,0.80037 -7.5,2.0625 4e-4,-0.0312 0,-0.0625 0,-0.0937 0,-5.02974 -4.9479,-9.125 -11.0625,-9.125 z m 47.9063,8.6875 c -0.021,0.11089 -0.022,0.23028 -0.031,0.34375 -0.055,0.0111 -0.1022,0.0493 -0.1563,0.0625 0.072,-0.12649 0.1238,-0.27222 0.1876,-0.40625 z m -5.4688,2.34375 c 0.5172,0.26813 1.0639,0.40625 1.6562,0.40625 0.209,0 0.4237,-0.0269 0.625,-0.0625 -0.1463,0.24775 -0.2667,0.50721 -0.375,0.78125 -0.5632,0.0234 -1.0807,0.12725 -1.5937,0.28125 -0.071,-0.48543 -0.1713,-0.96258 -0.3125,-1.40625 z"
         style="fill:#225500;fill-opacity:1;stroke:#000000;stroke-width:1;stroke-miterlimit:4;stroke-dasharray:none;stroke-dashoffset:0"
         inkscape:connector-curvature="0" />
    </g>
    <path
       style="fill:#a0892c;fill-opacity:1;stroke:#000000;stroke-width:1;stroke-miterlimit:4;stroke-dasharray:none;stroke-dashoffset:0"
       d="m 1999.2276,-913.35268 c -5.1188,0 -9.2187,4.13113 -9.2187,9.25 l 0,91.5 c 0,5.11887 4.0999,9.25 9.2187,9.25 l 108.6876,0 c 5.1188,0 9.2187,-4.13113 9.2187,-9.25 l 0,-91.5 c 0,-5.11887 -4.0999,-9.25 -9.2187,-9.25 l -108.6876,0 z m 10.5938,8.21875 87.5,0 c 6.2296,0 11.25,5.02043 11.25,11.25 l 0,69.65625 c 0,6.22957 -5.0204,11.21875 -11.25,11.21875 l -87.5,0 c -6.2296,0 -11.25,-4.98918 -11.25,-11.21875 l 0,-69.65625 c 0,-6.22957 5.0204,-11.25 11.25,-11.25 z"
       id="rect4090"
       inkscape:connector-curvature="0"
       inkscape:export-filename="G:\unity-dev\HouseCraft\Gfx\icon2.png"
       inkscape:export-xdpi="56.429924"
       inkscape:export-ydpi="56.429924" />
    <g
       id="g4182"
       transform="translate(-4.2857143,-10)"
       inkscape:export-filename="G:\unity-dev\HouseCraft\Gfx\icon2.png"
       inkscape:export-xdpi="56.429924"
       inkscape:export-ydpi="56.429924">
      <rect
         ry="7.6394571e-007"
         y="-944.7807"
         x="2222.8574"
         height="408.57144"
         width="274.28571"
         id="rect4148"
         style="fill:#ffd5d5;fill-opacity:1;stroke:#000000;stroke-width:1;stroke-miterlimit:4;stroke-dasharray:none;stroke-dashoffset:0" />
      <rect
         ry="7.6394571e-007"
         y="-618.35217"
         x="2224.2859"
         height="39.285713"
         width="274.28571"
         id="rect4166"
         style="fill:#ffaaaa;fill-opacity:1;stroke:#000000;stroke-width:1;stroke-miterlimit:4;stroke-dasharray:none;stroke-dashoffset:0" />
      <rect
         ry="12.592685"
         y="-699.46741"
         x="2290.8367"
         height="68.266853"
         width="95.714287"
         id="rect4152"
         style="fill:#ffffff;fill-opacity:1;stroke:#000000;stroke-width:1;stroke-miterlimit:4;stroke-dasharray:none;stroke-dashoffset:0" />
      <path
         sodipodi:nodetypes="ccccccccc"
         inkscape:connector-curvature="0"
         id="path4150"
         d="m 2283.5714,-634.49096 c 0.5051,7.44596 2.1428,23.4004 2.1428,23.4004 5.5558,8.2733 18.3981,12.03072 21.4286,19.89035 2.5254,12.8236 10,54.40595 10,54.40595 l 41.4286,0.58501 c 0,0 8.8165,-39.68537 12.8571,-54.99096 9.0914,-8.2733 21.4286,-16.09639 21.4286,-21.06037 0.5051,-8.68695 -0.7143,-21.06037 -0.7143,-21.06037 z"
         style="fill:#ffffff;stroke:#000000;stroke-width:1px;stroke-linecap:butt;stroke-linejoin:miter;stroke-opacity:1" />
      <path
         inkscape:connector-curvature="0"
         id="path4162"
         d="m 2460.7142,-666.92353 20,129.28571 16.0714,0.71428 0.3572,-134.64285 z"
         style="fill:#f9f9f9;stroke:#000000;stroke-width:1px;stroke-linecap:butt;stroke-linejoin:miter;stroke-opacity:1" />
      <path
         inkscape:connector-curvature="0"
         id="path4160"
         d="m 2497.1428,-709.06639 -91.4286,-1.42857 c 0,0 -2.8571,40 30,41.42857 32.8572,1.42857 61.4286,5.71428 61.4286,5.71428 z"
         style="fill:#ffffff;stroke:#000000;stroke-width:1px;stroke-linecap:butt;stroke-linejoin:miter;stroke-opacity:1" />
      <path
         inkscape:connector-curvature="0"
         id="path4164"
         d="m 2495.7142,-731.20925 -27.8571,-0.71428 -5.7143,8.57142 -12.1429,-4.28571 15.7143,-12.85714 32.1429,2.14285 z"
         style="fill:#999999;stroke:#000000;stroke-width:1px;stroke-linecap:butt;stroke-linejoin:miter;stroke-opacity:1" />
    </g>
  </g>
</svg>
